<svg xmlns="http://www.w3.org/2000/svg" xmlns:xlink="http://www.w3.org/1999/xlink" width="285.868" height="220.978" viewBox="0 0 285.868 220.978">
  <defs>
    <clipPath id="clip-path">
      <rect id="Rectangle_2027" data-name="Rectangle 2027" width="159" height="45" transform="translate(65 440)" fill="#fff" stroke="#707070" stroke-width="1"/>
    </clipPath>
    <clipPath id="clip-path-2">
      <rect id="Rectangle_2026" data-name="Rectangle 2026" width="1920" height="515" transform="translate(0 -3)" fill="#fff" stroke="#707070" stroke-width="1"/>
    </clipPath>
    <clipPath id="clip-path-3">
      <rect id="Rectangle_1358" data-name="Rectangle 1358" width="278.601" height="204.981"/>
    </clipPath>
  </defs>
  <g id="Groupe_2163" data-name="Groupe 2163" transform="translate(-66 -13.022)">
    <g id="Groupe_de_masques_49" data-name="Groupe de masques 49" transform="translate(1 -251)" clip-path="url(#clip-path)">
      <g id="Groupe_de_masques_48" data-name="Groupe de masques 48" transform="translate(0 250)" clip-path="url(#clip-path-2)">
        <g id="Tracé_5563" data-name="Tracé 5563" transform="translate(4570.908 5129.535)" fill="#fff" opacity="0.917">
          <path d="M -4427.35595703125 -4904.61767578125 L -4430.33837890625 -4906.32861328125 L -4499.80322265625 -4946.17333984375 L -4648.236328125 -4946.17333984375 L -4650.5087890625 -4946.17333984375 L -4652.21142578125 -4947.6787109375 C -4700.97314453125 -4990.802734375 -4814.15576171875 -5093.44580078125 -4812.0048828125 -5115.1240234375 C -4811.72412109375 -5117.95703125 -4810.19287109375 -5120.3779296875 -4807.80517578125 -5121.765625 C -4789.732421875 -5132.265625 -4487.54736328125 -5145.58154296875 -4427.15380859375 -5148.14404296875 L -4356.015625 -5148.1494140625 L -2601.536865234375 -5148.1494140625 L -2595.536865234375 -5148.1494140625 L -2595.536865234375 -5142.1494140625 L -2595.536865234375 -4952.37890625 L -2595.536865234375 -4946.37890625 L -2601.536865234375 -4946.37890625 L -4176.662109375 -4946.37890625 L -4354.41943359375 -4946.37890625 L -4424.37158203125 -4906.326171875 L -4427.35595703125 -4904.61767578125 Z" stroke="none"/>
          <path d="M -4427.35302734375 -4911.533203125 L -4356.015625 -4952.37890625 L -2601.537109375 -4952.37890625 L -2601.537109375 -5142.1494140625 L -4426.8994140625 -5142.1494140625 C -4426.8994140625 -5142.1494140625 -4787.0830078125 -5126.86572265625 -4804.791015625 -5116.57763671875 C -4822.4990234375 -5106.28857421875 -4648.236328125 -4952.17333984375 -4648.236328125 -4952.17333984375 L -4498.20458984375 -4952.17333984375 L -4427.35302734375 -4911.533203125 M -4427.3583984375 -4897.7021484375 L -4501.40185546875 -4940.17333984375 L -4652.78125 -4940.17333984375 L -4656.18603515625 -4943.18408203125 C -4765.32373046875 -5039.70458984375 -4819.75830078125 -5097.75244140625 -4817.97607421875 -5115.7158203125 C -4817.501953125 -5120.490234375 -4814.89404296875 -5124.5859375 -4810.8193359375 -5126.953125 C -4792.52587890625 -5137.58203125 -4536.59423828125 -5149.505859375 -4427.408203125 -5154.138671875 L -4356.015625 -5154.1494140625 L -2589.537109375 -5154.1494140625 L -2589.537109375 -4940.37890625 L -4352.8232421875 -4940.37890625 L -4427.3583984375 -4897.7021484375 Z" stroke="none" fill="#fff"/>
        </g>
      </g>
    </g>
    <g id="Groupe_643" data-name="Groupe 643" transform="translate(73.268 13.021)">
      <g id="Groupe_642" data-name="Groupe 642" transform="translate(0 0)" clip-path="url(#clip-path-3)">
        <path id="Tracé_1278" data-name="Tracé 1278" d="M305.981,203.258a4.515,4.515,0,0,0-4.42,4.827c0,1.887.68,3.408,3.4,6.869,3.2-2.2,5.485-3.829,5.485-6.713s-1.941-4.984-4.464-4.984m-8.495,24.648c0,4.877,3.252,8.285,8.056,8.285,2.767,0,5.728-.785,9.222-4.141L304.28,218.362c-3.64,2.623-6.794,4.983-6.794,9.544m22.082,10.488-3.349-4.4a14.62,14.62,0,0,1-10.63,4.719c-6.359,0-10.724-4.3-10.724-10.647,0-5.715,3.591-8.442,7.909-11.589-1.8-2.359-3.833-5.035-3.833-8.287a7.05,7.05,0,1,1,14.075.054c0,3.094-1.8,5.087-3.98,6.713l-2.573,1.887,9.9,12.953c1.552-2.518,2.036-4.562,2.036-9.281h2.573c0,4.669-.825,8.441-3.009,11.379l4.951,6.5Z" transform="translate(-138.165 -94.062)"/>
        <path id="Tracé_1279" data-name="Tracé 1279" d="M306.473,90.119a4.891,4.891,0,0,1-3.7,1.6,4.754,4.754,0,0,1-3.469-1.365c-1.307-1.306-1.383-2.515-1.383-5.691s.077-4.386,1.383-5.692a4.968,4.968,0,0,1,8.321,2.787h-1.48a3.318,3.318,0,0,0-3.372-2.826,3.231,3.231,0,0,0-2.4.975c-.877.9-.974,1.909-.974,4.756s.1,3.859.974,4.755a3.23,3.23,0,0,0,2.4.974A3.385,3.385,0,0,0,305.4,89.2a3.707,3.707,0,0,0,.778-2.515V85.617h-3.41V84.35h4.893v2.2a4.707,4.707,0,0,1-1.188,3.566" transform="translate(-139.595 -36.363)"/>
        <path id="Tracé_1280" data-name="Tracé 1280" d="M327.927,79.15h-3.7v5.088h3.7c1.618,0,2.766-.839,2.766-2.534a2.456,2.456,0,0,0-2.766-2.554M330.713,91.7l-3.158-6.159h-3.333V91.7h-1.48V77.825h5.321c2.415,0,4.112,1.461,4.112,3.86a3.6,3.6,0,0,1-3.022,3.722l3.3,6.3Z" transform="translate(-151.227 -36.467)"/>
        <path id="Tracé_1281" data-name="Tracé 1281" d="M349.211,79.949,346.6,87.278h5.187ZM353.324,91.7l-1.112-3.139h-6.061L345.04,91.7H343.46l5.109-13.878h1.245L354.9,91.7Z" transform="translate(-160.935 -36.467)"/>
        <path id="Tracé_1282" data-name="Tracé 1282" d="M378.053,91.7l-7.367-11.13V91.7h-1.481V77.825h1.4l7.368,11.09V77.825h1.481V91.7Z" transform="translate(-172.999 -36.466)"/>
        <path id="Tracé_1283" data-name="Tracé 1283" d="M403.28,80.165a3.467,3.467,0,0,0-2.729-1.014h-3.019V90.377h3.019a3.466,3.466,0,0,0,2.729-1.012c.9-.956.917-2.671.917-4.6s-.019-3.644-.917-4.6m1.17,10.077a4.6,4.6,0,0,1-3.645,1.462h-4.756V77.827h4.756a4.594,4.594,0,0,1,3.645,1.461c1.229,1.325,1.229,3.353,1.229,5.476s0,4.152-1.229,5.478" transform="translate(-185.577 -36.467)"/>
        <path id="Tracé_1284" data-name="Tracé 1284" d="M434.908,79.151H431.34v5.515h3.567a2.762,2.762,0,1,0,0-5.515m.117,6.842H431.34V91.7h-1.482V77.827h5.167a4.088,4.088,0,1,1,0,8.166" transform="translate(-201.419 -36.467)"/>
        <path id="Tracé_1285" data-name="Tracé 1285" d="M453.543,79.949l-2.612,7.329h5.185ZM457.656,91.7l-1.111-3.139h-6.063L449.372,91.7h-1.579L452.9,77.825h1.248L459.234,91.7Z" transform="translate(-209.823 -36.467)"/>
        <path id="Tracé_1286" data-name="Tracé 1286" d="M478.722,79.15h-3.7v5.088h3.7c1.618,0,2.768-.839,2.768-2.534a2.457,2.457,0,0,0-2.768-2.554M481.51,91.7l-3.158-6.159h-3.333V91.7h-1.482V77.825h5.321c2.417,0,4.114,1.461,4.114,3.86a3.6,3.6,0,0,1-3.022,3.722l3.294,6.3Z" transform="translate(-221.885 -36.467)"/>
        <rect id="Rectangle_1354" data-name="Rectangle 1354" width="1.482" height="13.878" transform="translate(264.437 41.358)"/>
        <path id="Tracé_1287" data-name="Tracé 1287" d="M510.472,91.716a6.005,6.005,0,0,1-4.736-1.833l.994-.994a4.749,4.749,0,0,0,3.781,1.5c2.047,0,3.295-.935,3.295-2.571a2.179,2.179,0,0,0-.683-1.737,2.99,2.99,0,0,0-1.812-.682l-1.618-.234a4.875,4.875,0,0,1-2.533-1.053,3.3,3.3,0,0,1-1.074-2.61c0-2.359,1.7-3.9,4.445-3.9a5.652,5.652,0,0,1,4.132,1.521l-.955.955a4.3,4.3,0,0,0-3.235-1.21c-1.871,0-2.944,1.034-2.944,2.592a2.044,2.044,0,0,0,.626,1.618,3.72,3.72,0,0,0,1.812.721l1.618.255a4.177,4.177,0,0,1,2.513.993,3.5,3.5,0,0,1,1.17,2.729c0,2.436-1.891,3.937-4.8,3.937" transform="translate(-236.973 -36.363)"/>
        <path id="Tracé_1288" data-name="Tracé 1288" d="M308.9,145.412a3.9,3.9,0,0,0,3.871-3.871,2.979,2.979,0,0,0-1.947-3.157c-2.755-1.021-2.09-.783-4.773-1.71a15.265,15.265,0,0,1-7.2-5.3,8.7,8.7,0,0,1-1.567-5.295,11.624,11.624,0,0,1,23.249,0h-7.716a3.86,3.86,0,1,0-7.72.023,3.474,3.474,0,0,0,1.662,3.134c2.282,1.473,2.019,1.187,4.75,2a14.756,14.756,0,0,1,7.434,5.033,8.45,8.45,0,0,1,1.613,5.32,11.623,11.623,0,0,1-23.246,0h7.74a3.872,3.872,0,0,0,3.872,3.87Z" transform="translate(-139.298 -53.637)"/>
        <path id="Tracé_1289" data-name="Tracé 1289" d="M370.222,116.122v7.524H355.175v7.545h11.285v7.523H355.175v7.524h15.047v7.547H347.628V116.122Z" transform="translate(-162.888 -54.411)"/>
        <rect id="Rectangle_1355" data-name="Rectangle 1355" width="7.547" height="37.662" transform="translate(210.839 61.711)"/>
        <path id="Tracé_1290" data-name="Tracé 1290" d="M440.572,136.322V115.5h7.547v38.366l-22.593-21.543v20.842h-7.548V114.8Z" transform="translate(-195.852 -53.793)"/>
        <path id="Tracé_1291" data-name="Tracé 1291" d="M481.732,116.122v37.663h22.594V146.24H489.28v-7.523h11.285v-7.524H489.28v-7.546h15.046v-7.524Z" transform="translate(-225.726 -54.411)"/>
        <path id="Tracé_1292" data-name="Tracé 1292" d="M344.258,211.311a11.424,11.424,0,1,0,16.154,16.157,11.424,11.424,0,1,0-16.154-16.157m21.564-5.362a18.968,18.968,0,1,1-13.487-5.619,18.4,18.4,0,0,1,13.487,5.619" transform="translate(-156.163 -93.869)"/>
        <rect id="Rectangle_1356" data-name="Rectangle 1356" width="7.564" height="37.745" transform="translate(218.044 106.647)"/>
        <path id="Tracé_1293" data-name="Tracé 1293" d="M442.781,230.033a3.909,3.909,0,0,0,3.878-3.878,2.985,2.985,0,0,0-1.951-3.165c-2.76-1.024-2.094-.785-4.782-1.714a15.289,15.289,0,0,1-7.211-5.307,8.709,8.709,0,0,1-1.57-5.306,11.649,11.649,0,0,1,23.3,0h-7.734a3.867,3.867,0,0,0-7.734.024,3.485,3.485,0,0,0,1.667,3.141c2.285,1.474,2.02,1.19,4.758,2a14.77,14.77,0,0,1,7.448,5.045,8.452,8.452,0,0,1,1.618,5.329,11.649,11.649,0,0,1-23.3,0h7.757a3.881,3.881,0,0,0,3.881,3.879Z" transform="translate(-202.022 -93.257)"/>
        <path id="Tracé_1294" data-name="Tracé 1294" d="M481.6,200.683v37.742h22.641v-7.562H489.16v-7.539h11.31v-7.539H489.16v-7.564h15.079v-7.538Z" transform="translate(-225.663 -94.034)"/>
        <line id="Ligne_30" data-name="Ligne 30" x2="119.912" transform="translate(158.13 150.506)" fill="#fff"/>
        <line id="Ligne_31" data-name="Ligne 31" x2="119.912" transform="translate(158.13 150.506)" fill="none" stroke="#000" stroke-width="2"/>
        <path id="Tracé_1295" data-name="Tracé 1295" d="M300.533,301.846a2.6,2.6,0,0,1-1.868-.734c-.713-.712-.766-1.306-.766-3.173s.053-2.461.766-3.173a2.6,2.6,0,0,1,1.868-.734,2.555,2.555,0,0,1,2.612,2.245h-.595a2.054,2.054,0,0,0-3.474-1.134c-.551.55-.594,1.177-.594,2.8s.043,2.245.594,2.795a2,2,0,0,0,1.457.594,2.029,2.029,0,0,0,2.04-1.726h.572a2.57,2.57,0,0,1-2.612,2.245" transform="translate(-139.587 -137.775)"/>
        <path id="Tracé_1296" data-name="Tracé 1296" d="M300.533,301.846a2.6,2.6,0,0,1-1.868-.734c-.713-.712-.766-1.306-.766-3.173s.053-2.461.766-3.173a2.6,2.6,0,0,1,1.868-.734,2.555,2.555,0,0,1,2.612,2.245h-.595a2.054,2.054,0,0,0-3.474-1.134c-.551.55-.594,1.177-.594,2.8s.043,2.245.594,2.795a2,2,0,0,0,1.457.594,2.029,2.029,0,0,0,2.04-1.726h.572a2.57,2.57,0,0,1-2.612,2.245" transform="translate(-139.587 -137.775)" fill="none"/>
        <path id="Tracé_1297" data-name="Tracé 1297" d="M314.868,295.144a2.085,2.085,0,0,0-2.915,0c-.551.55-.593,1.176-.593,2.793s.042,2.247.593,2.8a2.086,2.086,0,0,0,2.915,0c.55-.549.594-1.176.594-2.8s-.044-2.243-.594-2.793m.41,5.969a2.742,2.742,0,0,1-3.734,0c-.713-.712-.767-1.307-.767-3.175s.054-2.459.767-3.172a2.743,2.743,0,0,1,3.734,0c.712.713.765,1.307.765,3.172s-.053,2.463-.765,3.175" transform="translate(-145.621 -137.775)"/>
        <path id="Tracé_1298" data-name="Tracé 1298" d="M314.868,295.144a2.085,2.085,0,0,0-2.915,0c-.551.55-.593,1.176-.593,2.793s.042,2.247.593,2.8a2.086,2.086,0,0,0,2.915,0c.55-.549.594-1.176.594-2.8s-.044-2.243-.594-2.793m.41,5.969a2.742,2.742,0,0,1-3.734,0c-.713-.712-.767-1.307-.767-3.175s.054-2.459.767-3.172a2.743,2.743,0,0,1,3.734,0c.712.713.765,1.307.765,3.172s-.053,2.463-.765,3.175" transform="translate(-145.621 -137.775)"/>
        <path id="Tracé_1299" data-name="Tracé 1299" d="M330.461,301.839V295.5l-2.333,5.255h-.582l-2.374-5.255v6.336h-.583v-7.684h.583l2.676,5.925,2.613-5.925h.583v7.684Z" transform="translate(-152.093 -137.832)"/>
        <path id="Tracé_1300" data-name="Tracé 1300" d="M347.076,301.839V295.5l-2.33,5.255h-.584l-2.373-5.255v6.336H341.2v-7.684h.583l2.677,5.925,2.61-5.925h.584v7.684Z" transform="translate(-159.879 -137.832)"/>
        <path id="Tracé_1301" data-name="Tracé 1301" d="M360.249,301.9a2.491,2.491,0,0,1-2.632-2.558v-5.191h.583v5.115a2.051,2.051,0,1,0,4.1,0v-5.115h.584v5.191a2.491,2.491,0,0,1-2.635,2.558" transform="translate(-167.569 -137.832)"/>
        <path id="Tracé_1302" data-name="Tracé 1302" d="M376.815,301.839l-4.436-6.681v6.681H371.8v-7.684h.583l4.436,6.659v-6.659h.582v7.684Z" transform="translate(-174.213 -137.832)"/>
        <path id="Tracé_1303" data-name="Tracé 1303" d="M386.355,299.453h3.216l-1.609-4.521Zm4.07,2.386-.67-1.867h-3.584l-.669,1.867h-.628l2.828-7.685h.518l2.828,7.685Z" transform="translate(-180.341 -137.832)"/>
        <path id="Tracé_1304" data-name="Tracé 1304" d="M401.465,301.9a2.491,2.491,0,0,1-2.634-2.558v-5.191h.582v5.115a2.051,2.051,0,1,0,4.1,0v-5.115h.583v5.191a2.491,2.491,0,0,1-2.632,2.558" transform="translate(-186.88 -137.832)"/>
        <path id="Tracé_1305" data-name="Tracé 1305" d="M414.255,294.67v7.166h-.583V294.67h-2.287v-.518h5.168v.518Z" transform="translate(-192.763 -137.831)"/>
        <path id="Tracé_1306" data-name="Tracé 1306" d="M426.278,291.373h-.627l1.048-1.586h.723Zm-2.32,8.419v-7.684h4.662v.518h-4.079v3.032h3.475v.518h-3.475v3.1h4.079v.519Z" transform="translate(-198.654 -135.786)"/>
        <path id="Tracé_1307" data-name="Tracé 1307" d="M443.713,301.9a2.491,2.491,0,0,1-2.634-2.558v-5.191h.585v5.115a2.05,2.05,0,1,0,4.1,0v-5.115h.584v5.191a2.491,2.491,0,0,1-2.633,2.558" transform="translate(-206.677 -137.832)"/>
        <path id="Tracé_1308" data-name="Tracé 1308" d="M458.106,294.672h-2.265v3.107h2.265a1.483,1.483,0,0,0,1.7-1.554c0-1.067-.7-1.552-1.7-1.552m1.685,7.166-1.836-3.541h-2.115v3.541h-.583v-7.685h2.926a2,2,0,0,1,2.2,2.061,1.975,1.975,0,0,1-1.77,2.072l1.858,3.552Z" transform="translate(-213.32 -137.832)"/>
        <path id="Tracé_1309" data-name="Tracé 1309" d="M471.451,298.169h-2.265v3.151h2.265a1.583,1.583,0,1,0,0-3.151m-.086-3.5h-2.18v2.978h2.18c.928,0,1.705-.432,1.705-1.491s-.777-1.487-1.705-1.487m.151,7.166H468.6v-7.685h2.828a2,2,0,0,1,2.224,2.006,1.757,1.757,0,0,1-1.2,1.729,1.872,1.872,0,0,1,1.315,1.856,2,2,0,0,1-2.255,2.094" transform="translate(-219.573 -137.832)"/>
        <path id="Tracé_1310" data-name="Tracé 1310" d="M481.577,299.453h3.217l-1.609-4.521Zm4.07,2.386-.669-1.867H481.4l-.669,1.867H480.1l2.828-7.685h.518l2.828,7.685Z" transform="translate(-224.96 -137.832)"/>
        <rect id="Rectangle_1357" data-name="Rectangle 1357" width="0.583" height="7.686" transform="translate(262.663 156.321)"/>
        <path id="Tracé_1311" data-name="Tracé 1311" d="M504.841,301.839l-4.436-6.681v6.681h-.582v-7.684h.582l4.436,6.659v-6.659h.583v7.684Z" transform="translate(-234.202 -137.832)"/>
        <path id="Tracé_1312" data-name="Tracé 1312" d="M514.831,294.153v7.684h4.664v-.517h-4.079v-3.1h3.475V297.7h-3.475v-3.032h4.079v-.519Z" transform="translate(-241.235 -137.831)"/>
        <path id="Tracé_1313" data-name="Tracé 1313" d="M0,269.787l33.246-19.2L0,231.4Z" transform="translate(-0.002 -108.426)" fill="#ffe700"/>
        <path id="Tracé_1314" data-name="Tracé 1314" d="M0,214.478l33.246,19.2V195.29Z" transform="translate(-0.002 -91.507)" fill="#c7c700"/>
        <path id="Tracé_1315" data-name="Tracé 1315" d="M0,197.548l33.246-19.188L0,159.158Z" transform="translate(-0.002 -74.577)" fill="#67a111"/>
        <path id="Tracé_1316" data-name="Tracé 1316" d="M237.883,120.421l-33.246-19.194,33.246-19.2Z" transform="translate(-95.886 -38.437)" fill="#ffe700"/>
        <path id="Tracé_1317" data-name="Tracé 1317" d="M204.636,118.153l33.247,19.2-33.247,19.195Z" transform="translate(-95.886 -55.363)" fill="#c7c700"/>
        <path id="Tracé_1318" data-name="Tracé 1318" d="M237.883,192.664l-33.246-19.2,33.246-19.2Z" transform="translate(-95.886 -72.288)" fill="#67a111"/>
        <path id="Tracé_1319" data-name="Tracé 1319" d="M0,118.177,35.5,97.685,0,77.191Z" transform="translate(0 -36.169)" fill="#0077c3"/>
        <path id="Tracé_1320" data-name="Tracé 1320" d="M0,136.2,35.5,156.69V115.7Z" transform="translate(0 -54.214)" fill="#0060ac"/>
        <path id="Tracé_1321" data-name="Tracé 1321" d="M169.095,192.841,133.6,213.332l35.494,20.494Z" transform="translate(-62.602 -90.359)" fill="#0060ac"/>
        <path id="Tracé_1322" data-name="Tracé 1322" d="M102.3,154.323,66.8,174.817l35.5,20.5Z" transform="translate(-31.299 -72.311)" fill="#0060ac"/>
        <path id="Tracé_1323" data-name="Tracé 1323" d="M66.8,156.749l35.5-20.5-35.5-20.5Z" transform="translate(-31.3 -54.241)" fill="#004a97"/>
        <path id="Tracé_1324" data-name="Tracé 1324" d="M200.39,233.878l35.5-20.5-35.5-20.5Z" transform="translate(-93.897 -90.38)" fill="#004a97"/>
        <path id="Tracé_1325" data-name="Tracé 1325" d="M133.6,195.309l35.494-20.5-35.494-20.5Z" transform="translate(-62.601 -72.307)" fill="#004a97"/>
        <path id="Tracé_1326" data-name="Tracé 1326" d="M235.891,231.454l-35.5,20.5,35.5,20.5Z" transform="translate(-93.897 -108.453)" fill="#00307e"/>
        <path id="Tracé_1327" data-name="Tracé 1327" d="M200.39,311.014l35.5-20.495-35.5-20.5Z" transform="translate(-93.897 -126.525)" fill="#2f1b70"/>
        <path id="Tracé_1328" data-name="Tracé 1328" d="M169.095,270.024l-35.494,20.5,35.494,20.49Z" transform="translate(-62.602 -126.525)" fill="#5b126d"/>
        <path id="Tracé_1329" data-name="Tracé 1329" d="M133.6,349.578l35.494-20.5L133.6,308.591Z" transform="translate(-62.601 -144.597)" fill="#92006a"/>
        <path id="Tracé_1330" data-name="Tracé 1330" d="M66.807,329.085l35.5,20.492V308.589Z" transform="translate(-31.304 -144.596)" fill="#b90068"/>
        <path id="Tracé_1331" data-name="Tracé 1331" d="M66.809,311.008l35.495-20.49-35.495-20.5Z" transform="translate(-31.305 -126.524)" fill="#d6006f"/>
        <path id="Tracé_1332" data-name="Tracé 1332" d="M0,290.519l35.5,20.491V270.026Z" transform="translate(-0.002 -126.526)" fill="#d60052"/>
        <path id="Tracé_1333" data-name="Tracé 1333" d="M0,59.059l35.5,20.5V38.566Z" transform="translate(0 -18.071)" fill="#2f1b70"/>
        <path id="Tracé_1334" data-name="Tracé 1334" d="M66.8,79.559l35.5-20.5L66.8,38.57Z" transform="translate(-31.3 -18.073)" fill="#5b126d"/>
        <path id="Tracé_1335" data-name="Tracé 1335" d="M102.3,0,66.8,20.5l35.5,20.491Z" transform="translate(-31.301 0)" fill="#92006a"/>
        <path id="Tracé_1336" data-name="Tracé 1336" d="M133.6,0V40.994l35.494-20.5Z" transform="translate(-62.601 0)" fill="#b90068"/>
        <path id="Tracé_1337" data-name="Tracé 1337" d="M169.095,38.572,133.6,59.066,169.095,79.56Z" transform="translate(-62.602 -18.074)" fill="#d6006f"/>
        <path id="Tracé_1338" data-name="Tracé 1338" d="M200.39,79.559l35.5-20.5L200.39,38.57Z" transform="translate(-93.897 -18.073)" fill="#d60052"/>
      </g>
    </g>
  </g>
</svg>
