<svg xmlns="http://www.w3.org/2000/svg" xmlns:xlink="http://www.w3.org/1999/xlink" id="Ladyss-logo-white" width="100.011" height="116.45" viewBox="0 0 100.011 116.45"><defs><clipPath id="clip-path"><rect id="Rectangle_174" data-name="Rectangle 174" width="100.011" height="116.45" fill="none"></rect></clipPath></defs><path id="Path_190" data-name="Path 190" d="M48.283,93.769V90.359H20.259V17.792H58.394V14.382H16.849V93.769H48.283Z" transform="translate(-10.094 -8.616)" fill="#fff"></path><g id="Group_432" data-name="Group 432"><g id="Group_431" data-name="Group 431" clip-path="url(#clip-path)"><path id="Path_191" data-name="Path 191" d="M178.229,60.112V41.886H161.4a32.1,32.1,0,0,1,16.828,18.226" transform="translate(-96.691 -25.093)" fill="#fff"></path><path id="Path_192" data-name="Path 192" d="M62.9,41.886H46.074V60.11A32.1,32.1,0,0,1,62.9,41.886" transform="translate(-27.602 -25.093)" fill="#fff"></path><path id="Path_193" data-name="Path 193" d="M46.074,136.373v19.45H65.888a32.359,32.359,0,0,1-19.814-19.45" transform="translate(-27.602 -81.697)" fill="#fff"></path><path id="Path_194" data-name="Path 194" d="M153.953,155.821h19.815V136.369a32.358,32.358,0,0,1-19.815,19.452" transform="translate(-92.229 -81.695)" fill="#fff"></path><path id="Path_195" data-name="Path 195" d="M96.6,0H0V116.157H16.284v-1.295l3.2-8.392h9.876l2.449,9.687h8.626c5.649,0,7.866-6.577,7.866-10.044v-5.422c0-6.311-4.538-8.088-6.76-8.088H34.659v17.6h3.409V96.012h4.079c1.1.093,3.312.761,3.312,4.679v5.422c0,1.846-1.237,6.634-5.025,6.634H33.924l-4.34-17.166L28.831,92.6H21.852l-1.135,2.978-3.576,9.383-.574,1.505-2.393,6.278H3.409V90.919h57.5l-4.937,9.531-5.887-7.43-1.351,1.071,6.368,8.039-6.236,12.039,3.027,1.568L64.748,90.919H85.835c-3.62,1.066-5.5,3.789-5.5,6.493,0,4.637,3.35,5.72,7.229,6.975.289.094.589.19.9.292.529.174,1.045.334,1.545.49,4.034,1.255,5.057,1.8,5.057,3.864,0,3.535-4.255,3.809-5.559,3.809-5.9,0-6.78-3.085-6.78-4.924H79.112c0,5.263,3.981,8.533,10.389,8.533,5.483,0,9.168-2.98,9.168-7.418,0-4.947-3.861-6.147-7.594-7.309-.482-.15-.98-.305-1.491-.473-.314-.1-.617-.2-.912-.3-4.016-1.3-4.731-1.679-4.731-3.542,0-1.947,2.247-3.361,5.342-3.361A4.549,4.549,0,0,1,94.1,98.509h3.608a8.091,8.091,0,0,0-5.483-7.59h7.784V0ZM23.633,95.581h2.974l2.317,9.164H20.14Zm18.244-19.6H16.284V14.942H48.3v.36c-15.123.761-27.442,11.577-29.5,25.439h4.058C24.888,29.09,35.406,20.056,48.3,19.319V21.4c-12.842.79-23.1,10.424-23.7,22.358H18.519c-.014.363-.03.726-.03,1.092,0,13.678,9.938,25.209,23.388,28.584Zm8.128-22.195a13.152,13.152,0,0,1-1.7-.111v5.716c-8.324-.757-14.838-6.989-14.838-14.541,0-8.061,7.421-14.619,16.543-14.619s16.543,6.558,16.543,14.619c0,6.612-4.995,12.209-11.824,14.009v3.3c8.618-1.915,15.031-8.947,15.031-17.308,0-9.83-8.86-17.826-19.75-17.826s-19.75,8-19.75,17.826c0,9.31,7.951,16.972,18.046,17.755v2.483c-9.479-.66-17.311-6.775-19.738-14.907H25.24C27.737,60.084,37.022,67.6,48.3,68.3V87.509H45.286V70.044c-12.125-1.959-21.553-11.32-22.675-22.88h5.318a18.607,18.607,0,0,1-.149-2.317c0-11.194,9.97-20.3,22.225-20.3,10.716,0,19.683,6.963,21.768,16.2h3.268C73.03,30.235,63.449,22.119,51.71,21.4V14.942H83.726V75.978H58.134V73.435C69.791,70.509,78.8,61.45,81,50.179H76.906c-2.53,11.053-12.757,19.484-25.2,20.2V68.3c12.4-.763,22.395-9.77,23.6-21.131h6.1c.065-.765.108-1.537.108-2.317,0-14.811-11.649-27.115-26.8-29.259v4.061c12.55,2.027,22.211,11.987,22.761,24.107H72.2c.021.362.033.726.033,1.092,0,10.669-9.059,19.436-20.52,20.235V56.9c6.956-.729,12.363-5.854,12.363-12.051,0-6.7-6.311-12.144-14.068-12.144S35.937,38.151,35.937,44.847c0,5.267,3.907,9.76,9.349,11.438V52.894c-3.631-1.447-6.141-4.51-6.141-8.047,0-4.928,4.872-8.936,10.86-8.936s10.861,4.008,10.861,8.936-4.872,8.936-10.861,8.936M96.6,87.509H51.71V74.391q1.528-.077,3.015-.291V85.153H93.256V5.766H51.71V9.176H89.846V81.743H58.134V79.387h29V11.532H12.875V79.387h29v8.122H3.409V3.409H96.6Z" fill="#fff"></path><path id="Path_196" data-name="Path 196" d="M164.1,248.209c-.368-.113-.75-.231-1.141-.358l-.7-.225c-3.2-1.024-3.6-1.32-3.6-2.646,0-1.453,1.709-2.507,4.063-2.507a3.434,3.434,0,0,1,3.663,3.339H169.2a6.244,6.244,0,0,0-6.47-6.145c-3.98,0-6.869,2.235-6.869,5.314,0,3.541,2.572,4.365,5.549,5.319l.686.221c.4.132.8.253,1.182.371,3.069.946,3.848,1.353,3.848,2.889,0,2.642-3.237,2.847-4.23,2.847-4.492,0-5.163-2.313-5.163-3.692h-2.806c0,4.008,3.054,6.5,7.97,6.5,4.209,0,7.036-2.272,7.036-5.653,0-3.776-2.963-4.689-5.828-5.571" transform="translate(-92.811 -143.578)" fill="#fff"></path></g></g></svg>