<svg xmlns="http://www.w3.org/2000/svg" xmlns:xlink="http://www.w3.org/1999/xlink" version="1.2" baseProfile="tiny" id="LOGO_SNCF_2022-VECTO" x="0px" y="0px" overflow="visible" xml:space="preserve" viewBox="76.8 76.7 293.54 216.5" aria-hidden="true">
<rect fill="none" width="447.2" height="370.2"/>
<g>
	<g>
		<linearGradient id="SVGID_1_" gradientUnits="userSpaceOnUse" x1="76.9017" y1="153.6212" x2="369.9311" y2="153.6212">
			<stop offset="0" style="stop-color:#822266"/>
			<stop offset="0.25" style="stop-color:#AF1173"/>
			<stop offset="0.81" style="stop-color:#DC0E0E"/>
			<stop offset="1" style="stop-color:#DC0E0E"/>
		</linearGradient>
		<path fill="url(#SVGID_1_)" d="M82.3,77.1c-3.3,0.1-5.4,1.7-5.4,4.9v143.8c0,2.5,1.8,4.8,4.6,4.8h256.7c2.3,0,4.2-0.2,5.2-3.3    c0,0,26-81.4,26.5-82.9c1-3.1,0.3-4.6-2.3-6.3C284,84.5,159,76.7,102.2,76.7C94,76.7,87.3,76.9,82.3,77.1z"/>
		<path fill="#FFFFFF" d="M135.4,169c-9.4-4.6-15.8-6.9-14.3-11.5c1.8-5.4,11.3-7.5,19.9-7.3c4.3,0.1,7.4,0.7,10.9,1.5l3.1-9.8    c-4.5-0.8-7.7-1.2-13-1.4c-17.2-0.4-32.8,4.4-36.8,14.4c-4.8,11.9,8.7,18.6,20.3,24.1c9.3,4.4,16.6,8.6,14,14    c-2,4.2-8.6,6.2-18.1,6c-8.2-0.2-18.5-2.6-26.6-6.6l-4.8,10.4c6,2.8,18.2,6.5,28.7,6.8c19.7,0.4,32.4-4.5,37.6-15.3    C162.4,181.7,147.4,174.8,135.4,169z"/>
		<path fill="#FFFFFF" d="M162.1,186.9c0.1,0.2,0.3,0.3,0.5,0.3c0.3,0,0.4-0.1,0.5-0.3c0.1-0.3,9.6-29.7,9.6-29.7    c9.7,13.8,19.3,32,24.4,51.3h15.8l7.8-24.4c0.1-0.2,0.3-0.3,0.5-0.3c0.3,0,0.5,0.1,0.5,0.3c2.4,15.3,17.6,25.6,39.1,25.6    c14,0,26.5-3.7,29.7-5.3l8.2-25.7H330l3.2-10h-31.4l5.4-16.9h37.4l3.2-10.3h-52.5l-17.8,55.7c-3.8,1-8.5,1.4-13.3,1.4    c-10.5,0-19-2.5-23.7-8.1c-3.6-4.2-5-9.6-4.1-15.6c2.1-14.4,16.1-23.4,34.8-23.4c3.9,0,8,0.2,11.6,0.7l3.7-10.8    c-4.5-0.7-10-1-15.3-1c-16.6,0-31,5.7-40.3,15.8c-0.3,0.3-0.6,0.3-0.8,0.3c-0.3,0-0.5-0.1-0.4-0.3l4.7-14.7h-13.7l-15,47    c-4.8-13.9-14.6-32.1-26.6-47h-14.7l-11,34.2C158.9,179.7,160.6,182.7,162.1,186.9z"/>
	</g>
	
		<linearGradient id="SVGID_00000175281596441992188800000010521537788152489360_" gradientUnits="userSpaceOnUse" x1="76.901" y1="272.14" x2="341.7491" y2="272.14">
		<stop offset="0" style="stop-color:#822266"/>
		<stop offset="0.25" style="stop-color:#AF1173"/>
		<stop offset="0.81" style="stop-color:#DC0E0E"/>
		<stop offset="1" style="stop-color:#DC0E0E"/>
	</linearGradient>
	<path fill="url(#SVGID_00000175281596441992188800000010521537788152489360_)" d="M97.6,268.3h16.5v20.8l-0.8,0.5   c-1,0.6-2.1,1.2-3.4,1.6c-1.2,0.4-2.5,0.8-3.8,1.1c-1.3,0.3-2.6,0.5-4,0.7c-1.3,0.1-2.6,0.2-3.8,0.2c-3.4,0-6.4-0.6-9.1-1.7   c-2.7-1.1-4.9-2.7-6.8-4.6c-1.8-1.9-3.3-4.2-4.2-6.8c-1-2.5-1.4-5.2-1.4-8.1c0-3,0.5-5.8,1.6-8.3c1-2.6,2.5-4.8,4.3-6.7   c1.8-1.9,4.1-3.4,6.7-4.5c2.6-1.1,5.4-1.6,8.4-1.6c3.6,0,6.6,0.5,9,1.4c2.4,0.9,4.4,2.3,6,3.9l1.1,1.1l-5.7,6.1l-1.2-1.1   c-1.4-1.3-2.8-2.2-4.3-2.7c-3.3-1.1-7.2-1.1-10,0.3c-1.5,0.7-2.8,1.6-3.9,2.8c-1.1,1.2-1.9,2.6-2.5,4.2c-0.6,1.6-0.9,3.4-0.9,5.2   c0,1.9,0.3,3.7,1,5.3c0.7,1.6,1.6,3,2.7,4.2c1.1,1.2,2.5,2.1,4.1,2.8c2.9,1.3,6.7,1.2,9.8,0.5c1.1-0.2,2-0.5,2.8-0.9v-7.8h-8.3   V268.3z M150,274.9l10.9,17.5h-10.1l-9.5-16.4h-3.1v16.4H130v-40.4h14.7c2.6,0,4.8,0.4,6.5,1.1c1.8,0.7,3.2,1.7,4.2,2.9   c1.1,1.2,1.8,2.5,2.2,4c0.4,1.4,0.6,2.7,0.6,4c0,1.4-0.2,2.7-0.7,4c-0.5,1.3-1.2,2.5-2.1,3.5c-0.9,1-2,1.9-3.3,2.6   C151.4,274.4,150.7,274.7,150,274.9z M138.2,268.3h5c0.9,0,1.8-0.1,2.7-0.2c0.8-0.1,1.5-0.4,2.1-0.7c0.5-0.3,0.9-0.7,1.2-1.2   c0.3-0.5,0.5-1.3,0.5-2.3s-0.2-1.7-0.5-2.3c-0.3-0.5-0.7-0.9-1.2-1.2c-0.6-0.3-1.3-0.6-2.1-0.7c-0.9-0.1-1.8-0.2-2.7-0.2h-5V268.3z    M210.1,263.8c1,2.6,1.6,5.4,1.6,8.3c0,3-0.5,5.8-1.6,8.3c-1,2.6-2.5,4.8-4.3,6.7c-1.8,1.9-4.1,3.4-6.7,4.5   c-2.6,1.1-5.4,1.6-8.4,1.6s-5.9-0.5-8.4-1.6c-2.6-1.1-4.8-2.6-6.7-4.5c-1.8-1.9-3.3-4.1-4.3-6.7c-1-2.6-1.6-5.4-1.6-8.3   c0-3,0.5-5.8,1.6-8.3c1-2.6,2.5-4.8,4.3-6.7c1.8-1.9,4.1-3.4,6.7-4.5c2.6-1.1,5.4-1.6,8.4-1.6s5.9,0.5,8.4,1.6   c2.6,1.1,4.8,2.6,6.7,4.5v0C207.6,259,209.1,261.3,210.1,263.8z M195.8,284.3c1.5-0.7,2.8-1.6,3.9-2.8c1.1-1.2,1.9-2.6,2.5-4.2   c0.6-1.6,0.9-3.4,0.9-5.2c0-1.8-0.3-3.6-0.9-5.2c-0.6-1.6-1.4-3-2.5-4.2c-1.1-1.2-2.4-2.1-3.9-2.8c-1.5-0.7-3.2-1-5.1-1   s-3.6,0.3-5.1,1c-1.5,0.7-2.8,1.6-3.9,2.8c-1.1,1.2-1.9,2.6-2.5,4.2c-0.6,1.6-0.9,3.4-0.9,5.2c0,1.8,0.3,3.6,0.9,5.2   c0.6,1.6,1.4,3,2.5,4.2c1.1,1.2,2.4,2.1,3.9,2.8c1.5,0.7,3.2,1,5.1,1S194.3,285,195.8,284.3z M248.7,276.3c0,1-0.1,2.1-0.4,3.2   c-0.3,1.1-0.7,2-1.3,2.9c-0.6,0.9-1.4,1.5-2.4,2.1c-0.9,0.5-2.2,0.8-3.6,0.8c-1.5,0-2.7-0.3-3.6-0.8c-1-0.6-1.8-1.2-2.4-2.1   c-0.6-0.9-1.1-1.9-1.3-2.9c-0.3-1.1-0.4-2.2-0.4-3.2v-24.4H225v25.2c0,2.4,0.4,4.6,1.2,6.5c0.8,2,2,3.7,3.4,5.1   c1.4,1.4,3.2,2.6,5.1,3.3c1.9,0.8,4,1.2,6.3,1.2c2.2,0,4.3-0.4,6.3-1.2c1.9-0.8,3.7-1.9,5.1-3.3c1.4-1.4,2.6-3.2,3.4-5.1   c0.8-2,1.2-4.2,1.2-6.5v-25.2h-8.2V276.3z M300.2,259.9c0.4,1.4,0.6,2.7,0.6,4c0,1.3-0.2,2.7-0.6,4c-0.4,1.5-1.2,2.8-2.2,4   c-1.1,1.2-2.5,2.1-4.2,2.9c-1.7,0.7-3.9,1.1-6.5,1.1h-6.5v16.4h-8.2v-40.4h14.7c2.6,0,4.8,0.4,6.5,1.1c1.8,0.7,3.2,1.7,4.2,2.9v0   C299,257.1,299.7,258.4,300.2,259.9z M280.8,268.3h5c0.9,0,1.8-0.1,2.7-0.2c0.8-0.1,1.5-0.4,2.1-0.7c0.5-0.3,0.9-0.7,1.2-1.2   c0.3-0.5,0.5-1.3,0.5-2.3c0-1-0.2-1.7-0.5-2.3c-0.3-0.5-0.7-0.9-1.2-1.2c-0.6-0.3-1.3-0.6-2.1-0.7c-0.9-0.1-1.8-0.2-2.7-0.2h-5   V268.3z M321.8,284.4v-8.7h17.7v-7.9h-17.7v-7.9h19v-7.9h-27.2v40.4h28.2v-7.9H321.8z"/>
</g>
<g>
</g>
<g>
</g>
<g>
</g>
<g>
</g>
<g>
</g>
<g>
</g>
<g>
</g>
<g>
</g>
<g>
</g>
<g>
</g>
<g>
</g>
<g>
</g>
<g>
</g>
<g>
</g>
<g>
</g>
</svg>