<?xml version="1.0" encoding="UTF-8" standalone="no"?>
<!DOCTYPE svg PUBLIC "-//W3C//DTD SVG 1.1//EN" "http://www.w3.org/Graphics/SVG/1.1/DTD/svg11.dtd">
<svg width="100%" height="100%" viewBox="0 0 264 81" version="1.1" xmlns="http://www.w3.org/2000/svg" xmlns:xlink="http://www.w3.org/1999/xlink" xml:space="preserve" xmlns:serif="http://www.serif.com/" style="fill-rule:evenodd;clip-rule:evenodd;stroke-linecap:round;stroke-linejoin:round;stroke-miterlimit:10;">
    <g transform="matrix(0.337807,0,0,0.337807,85.0156,23.9492)">
        <g transform="matrix(1,0,0,1,-1061.16,-332.87)">
            <path d="M1198.92,434.845C1184.6,448.082 1164.13,454.702 1143.05,450.969C1107.86,444.739 1076.34,412.015 1082.37,377.938" style="fill:none;fill-rule:nonzero;stroke:rgb(53,53,53);stroke-width:1.48px;"/>
        </g>
        <g transform="matrix(1,0,0,1,-1061.16,-451.668)">
            <path d="M1301.4,511.357L1300.88,511.357L1256.99,380.772L1198.92,380.772L1198.92,570.666L1237.55,570.666L1237.55,437.42L1238.07,437.42L1284.06,570.666L1315.85,570.666L1361.84,436.089L1362.36,436.089L1362.36,570.666L1400.99,570.666L1400.99,380.772L1342.92,380.772L1301.4,511.357Z" style="fill:rgb(53,53,53);fill-rule:nonzero;"/>
        </g>
        <g transform="matrix(1,0,0,1,-1061.16,-451.668)">
            <path d="M1520.84,380.772L1478.53,380.772L1407.58,570.666L1449.1,570.666L1463.82,528.379L1474.59,497.261L1499.03,427.58L1499.55,427.58L1523.2,497.261L1533.98,528.379L1548.17,570.666L1591,570.666L1520.84,380.772Z" style="fill:rgb(53,53,53);fill-rule:nonzero;"/>
        </g>
        <g transform="matrix(1,0,0,1,-1061.16,-425.834)">
            <path d="M1154.65,445.646C1139.86,445.646 1127.24,454.9 1122.24,467.928L1189.35,479.958C1189.14,460.975 1173.69,445.646 1154.65,445.646" style="fill:rgb(53,53,53);fill-rule:nonzero;"/>
        </g>
        <g transform="matrix(1,0,0,1,-1061.16,-451.668)">
            <path d="M1090.14,506.103C1090.14,505.656 1090.16,505.213 1090.17,504.767L1090.14,504.775L1090.14,486.091C1090.14,477.582 1089.39,469.827 1087.9,462.82C1086.41,455.818 1083.83,449.879 1080.15,445.001C1079.02,443.502 1077.75,442.119 1076.36,440.821C1073.23,437.896 1069.47,435.47 1065.04,433.565C1058.64,430.82 1050.46,429.444 1040.47,429.444C1033.46,429.444 1026.28,431.261 1018.93,434.895C1011.57,438.53 1005.52,444.334 1000.79,452.314L1000,452.314L1000,380.772L809.489,380.772L809.489,415.878L865.722,415.878L865.722,570.666L906.976,570.666L906.976,415.878L962.69,415.878L962.69,570.666L1000,570.666L1000,498.593C1000,484.586 1002.28,474.522 1006.84,468.404C1011.39,462.288 1018.75,459.231 1028.91,459.231C1037.84,459.231 1044.06,462.024 1047.57,467.605C1051.07,473.192 1052.82,481.662 1052.82,493.005L1052.82,511.225C1053.5,523.999 1056.57,536.127 1061.56,547.207C1065.39,555.713 1070.35,563.6 1076.27,570.66C1076.27,570.66 1076.27,570.663 1076.28,570.666L1090.14,570.666L1090.14,570.655L1154.67,570.632C1119.03,570.632 1090.14,541.744 1090.14,506.103" style="fill:rgb(53,53,53);fill-rule:nonzero;"/>
        </g>
        <g transform="matrix(0.986822,-0.161811,-0.161811,-0.986822,-961.844,679.822)">
            <path d="M1154.34,513.395C1187.38,516.294 1185.81,529.384 1185.81,529.384L1154.34,526.621C1122.86,523.857 1121.32,510.494 1121.32,510.494L1154.34,513.395Z" style="fill:rgb(53,53,53);fill-rule:nonzero;"/>
        </g>
        <g transform="matrix(1,0,0,1,-1061.16,-208.459)">
            <path d="M1015.21,343.757L1015.21,341.235L1029.33,341.235L1029.33,343.757L1023.58,343.757L1023.58,366.994L1020.95,366.994L1020.95,343.757L1015.21,343.757Z" style="fill:rgb(53,53,53);fill-rule:nonzero;stroke:rgb(53,53,53);stroke-width:0.44px;stroke-linecap:butt;"/>
        </g>
        <g transform="matrix(1,0,0,1,-1061.16,-209.106)">
            <path d="M1030.55,341.235L1033.01,341.235L1033.01,352.005C1034,350.697 1035.09,349.719 1036.28,349.072C1037.47,348.422 1038.76,348.099 1040.15,348.099C1041.57,348.099 1042.84,348.461 1043.94,349.184C1045.04,349.91 1045.86,350.882 1046.38,352.1C1046.91,353.319 1047.17,355.233 1047.17,357.835L1047.17,367.641L1044.72,367.641L1044.72,358.552C1044.72,356.359 1044.63,354.893 1044.46,354.157C1044.15,352.896 1043.6,351.949 1042.8,351.313C1042,350.677 1040.95,350.357 1039.66,350.357C1038.18,350.357 1036.85,350.848 1035.67,351.829C1034.5,352.809 1033.73,354.022 1033.36,355.471C1033.12,356.404 1033.01,358.132 1033.01,360.654L1033.01,367.641L1030.55,367.641L1030.55,341.235Z" style="fill:rgb(53,53,53);fill-rule:nonzero;stroke:rgb(53,53,53);stroke-width:0.44px;stroke-linecap:butt;"/>
        </g>
        <g transform="matrix(1,0,0,1,-1061.16,-210.192)">
            <path d="M1060.48,340.744L1064.25,340.744L1059.08,346.138L1056.67,346.138L1060.48,340.744ZM1066.38,357.273C1066.06,355.968 1065.58,354.924 1064.96,354.142C1064.33,353.357 1063.5,352.728 1062.48,352.25C1061.45,351.771 1060.37,351.531 1059.23,351.531C1057.36,351.531 1055.75,352.132 1054.41,353.334C1053.43,354.212 1052.68,355.523 1052.18,357.273L1066.38,357.273ZM1066.38,362.407L1068.45,363.49C1067.77,364.822 1066.99,365.895 1066.1,366.714C1065.21,367.531 1064.22,368.153 1063.1,368.579C1061.99,369.005 1060.74,369.218 1059.34,369.218C1056.23,369.218 1053.8,368.198 1052.05,366.161C1050.29,364.125 1049.42,361.821 1049.42,359.254C1049.42,356.837 1050.16,354.683 1051.64,352.791C1053.52,350.388 1056.04,349.186 1059.2,349.186C1062.45,349.186 1065.04,350.415 1066.98,352.881C1068.36,354.618 1069.06,356.79 1069.08,359.395L1051.94,359.395C1051.98,361.606 1052.69,363.422 1054.06,364.836C1055.43,366.25 1057.12,366.959 1059.13,366.959C1060.1,366.959 1061.04,366.788 1061.96,366.453C1062.88,366.116 1063.66,365.668 1064.3,365.11C1064.94,364.551 1065.64,363.651 1066.38,362.407" style="fill:rgb(53,53,53);fill-rule:nonzero;stroke:rgb(53,53,53);stroke-width:0.44px;stroke-linecap:butt;"/>
        </g>
        <g transform="matrix(1,0,0,1,-1061.16,-201.751)">
            <path d="M1080.58,343.143C1078.54,343.143 1076.79,343.896 1075.33,345.401C1073.86,346.908 1073.13,348.73 1073.13,350.865C1073.13,352.243 1073.46,353.525 1074.13,354.716C1074.8,355.907 1075.7,356.826 1076.84,357.476C1077.98,358.123 1079.22,358.449 1080.58,358.449C1081.94,358.449 1083.19,358.123 1084.32,357.476C1085.46,356.826 1086.36,355.907 1087.03,354.716C1087.7,353.525 1088.03,352.243 1088.03,350.865C1088.03,348.73 1087.3,346.908 1085.83,345.401C1084.36,343.896 1082.61,343.143 1080.58,343.143M1080.59,340.744C1083.53,340.744 1085.96,341.806 1087.89,343.93C1089.64,345.868 1090.52,348.163 1090.52,350.814C1090.52,353.475 1089.59,355.801 1087.74,357.79C1085.88,359.783 1083.5,360.777 1080.59,360.777C1077.67,360.777 1075.28,359.783 1073.42,357.79C1071.57,355.801 1070.64,353.475 1070.64,350.814C1070.64,348.175 1071.52,345.886 1073.28,343.949C1075.2,341.812 1077.64,340.744 1080.59,340.744" style="fill:rgb(53,53,53);fill-rule:nonzero;stroke:rgb(53,53,53);stroke-width:0.44px;stroke-linecap:butt;"/>
        </g>
        <g transform="matrix(1,0,0,1,-1061.16,-202.242)">
            <path d="M1092.05,341.726L1094.55,341.726L1094.55,344.51C1095.3,343.413 1096.08,342.592 1096.91,342.049C1097.74,341.508 1098.61,341.235 1099.5,341.235C1100.18,341.235 1100.9,341.452 1101.67,341.882L1100.4,343.951C1099.88,343.727 1099.45,343.616 1099.1,343.616C1098.29,343.616 1097.5,343.954 1096.74,344.623C1095.98,345.295 1095.4,346.338 1095,347.749C1094.7,348.834 1094.55,351.03 1094.55,354.333L1094.55,360.777L1092.05,360.777L1092.05,341.726Z" style="fill:rgb(53,53,53);fill-rule:nonzero;stroke:rgb(53,53,53);stroke-width:0.44px;stroke-linecap:butt;"/>
        </g>
        <g transform="matrix(1,0,0,1,-1061.16,-209.595)">
            <path d="M1101.31,349.079L1103.76,349.079L1103.76,368.131L1101.31,368.131L1101.31,349.079ZM1102.53,341.234C1103.09,341.234 1103.56,341.434 1103.96,341.828C1104.35,342.225 1104.55,342.705 1104.55,343.265C1104.55,343.815 1104.35,344.285 1103.96,344.683C1103.56,345.082 1103.09,345.279 1102.53,345.279C1101.98,345.279 1101.51,345.082 1101.12,344.683C1100.72,344.285 1100.52,343.815 1100.52,343.265C1100.52,342.705 1100.72,342.225 1101.12,341.828C1101.51,341.434 1101.98,341.234 1102.53,341.234" style="fill:rgb(53,53,53);fill-rule:nonzero;stroke:rgb(53,53,53);stroke-width:0.44px;stroke-linecap:butt;"/>
        </g>
        <g transform="matrix(1,0,0,1,-1061.16,-201.751)">
            <path d="M1116.36,343.319L1114.78,344.947C1113.47,343.675 1112.19,343.04 1110.94,343.04C1110.14,343.04 1109.46,343.299 1108.89,343.827C1108.32,344.351 1108.04,344.963 1108.04,345.665C1108.04,346.283 1108.27,346.872 1108.74,347.432C1109.21,348.004 1110.19,348.676 1111.69,349.446C1113.52,350.394 1114.75,351.304 1115.41,352.179C1116.05,353.066 1116.38,354.063 1116.38,355.174C1116.38,356.737 1115.83,358.061 1114.73,359.149C1113.63,360.233 1112.25,360.777 1110.6,360.777C1109.51,360.777 1108.46,360.536 1107.46,360.06C1106.46,359.58 1105.63,358.919 1104.97,358.079L1106.52,356.327C1107.77,357.74 1109.1,358.449 1110.5,358.449C1111.48,358.449 1112.32,358.132 1113.01,357.502C1113.7,356.871 1114.05,356.129 1114.05,355.277C1114.05,354.577 1113.82,353.952 1113.36,353.405C1112.91,352.867 1111.88,352.19 1110.27,351.374C1108.55,350.486 1107.38,349.609 1106.76,348.746C1106.14,347.884 1105.83,346.897 1105.83,345.788C1105.83,344.339 1106.33,343.137 1107.32,342.179C1108.3,341.223 1109.55,340.744 1111.06,340.744C1112.81,340.744 1114.58,341.602 1116.36,343.319" style="fill:rgb(53,53,53);fill-rule:nonzero;stroke:rgb(53,53,53);stroke-width:0.44px;stroke-linecap:butt;"/>
        </g>
        <g transform="matrix(1,0,0,1,-1061.16,-201.752)">
            <path d="M1134.66,348.834C1134.33,347.529 1133.85,346.483 1133.23,345.701C1132.6,344.918 1131.78,344.287 1130.75,343.811C1129.72,343.331 1128.64,343.09 1127.51,343.09C1125.64,343.09 1124.03,343.693 1122.68,344.895C1121.7,345.771 1120.96,347.083 1120.46,348.834L1134.66,348.834ZM1134.66,353.967L1136.72,355.051C1136.05,356.382 1135.26,357.455 1134.38,358.273C1133.49,359.091 1132.49,359.713 1131.38,360.139C1130.27,360.565 1129.01,360.777 1127.61,360.777C1124.5,360.777 1122.07,359.758 1120.32,357.721C1118.57,355.684 1117.69,353.381 1117.69,350.815C1117.69,348.397 1118.43,346.242 1119.92,344.351C1121.8,341.947 1124.32,340.745 1127.47,340.745C1130.72,340.745 1133.31,341.976 1135.25,344.44C1136.63,346.177 1137.33,348.349 1137.36,350.956L1120.21,350.956C1120.26,353.166 1120.97,354.981 1122.33,356.395C1123.7,357.811 1125.39,358.52 1127.4,358.52C1128.37,358.52 1129.31,358.349 1130.23,358.012C1131.15,357.676 1131.93,357.229 1132.57,356.671C1133.22,356.11 1133.91,355.21 1134.66,353.967" style="fill:rgb(53,53,53);fill-rule:nonzero;stroke:rgb(53,53,53);stroke-width:0.44px;stroke-linecap:butt;"/>
        </g>
        <g transform="matrix(1,0,0,1,-1061.16,-202.242)">
            <path d="M1138.92,341.726L1141.42,341.726L1141.42,344.51C1142.17,343.413 1142.96,342.592 1143.79,342.049C1144.62,341.508 1145.48,341.235 1146.38,341.235C1147.06,341.235 1147.78,341.452 1148.55,341.882L1147.27,343.951C1146.76,343.727 1146.33,343.616 1145.98,343.616C1145.16,343.616 1144.37,343.954 1143.61,344.623C1142.85,345.295 1142.27,346.338 1141.88,347.749C1141.57,348.834 1141.42,351.03 1141.42,354.333L1141.42,360.777L1138.92,360.777L1138.92,341.726Z" style="fill:rgb(53,53,53);fill-rule:nonzero;stroke:rgb(53,53,53);stroke-width:0.44px;stroke-linecap:butt;"/>
        </g>
        <g transform="matrix(1,0,0,1,-1061.16,-201.079)">
            <path d="M1162.28,347.797C1163.23,347.06 1163.94,346.337 1164.42,345.628C1164.76,345.122 1164.93,344.673 1164.93,344.284C1164.93,343.829 1164.71,343.44 1164.27,343.112C1163.83,342.785 1163.24,342.62 1162.51,342.62C1161.82,342.62 1161.25,342.788 1160.82,343.126C1160.38,343.463 1160.16,343.861 1160.16,344.323C1160.16,344.678 1160.25,345.01 1160.43,345.32C1160.87,346.074 1161.48,346.9 1162.28,347.797M1162.04,350.389C1160.37,351.638 1159.28,352.635 1158.77,353.378C1158.25,354.117 1158,354.804 1158,355.434C1158,356.18 1158.31,356.838 1158.94,357.409C1159.57,357.984 1160.35,358.27 1161.26,358.27C1161.95,358.27 1162.64,358.126 1163.3,357.844C1164.35,357.392 1165.55,356.622 1166.91,355.537L1163.82,352.358C1163.29,351.798 1162.69,351.142 1162.04,350.389M1170.86,352.374L1172.19,353.779C1171.34,354.532 1170.53,355.184 1169.76,355.731C1170.3,356.221 1170.99,356.894 1171.85,357.751C1172.52,358.423 1173.11,359.046 1173.59,359.614L1170.86,359.614L1168.27,356.939C1166.64,358.253 1165.31,359.108 1164.29,359.508C1163.27,359.905 1162.19,360.107 1161.05,360.107C1159.55,360.107 1158.34,359.673 1157.42,358.808C1156.51,357.941 1156.05,356.863 1156.05,355.566C1156.05,354.59 1156.36,353.614 1156.98,352.63C1157.59,351.65 1158.85,350.41 1160.75,348.909C1159.67,347.615 1158.99,346.659 1158.68,346.042C1158.37,345.427 1158.22,344.84 1158.22,344.281C1158.22,343.306 1158.6,342.499 1159.35,341.86C1160.22,341.115 1161.3,340.742 1162.6,340.742C1163.42,340.742 1164.16,340.907 1164.83,341.236C1165.51,341.563 1166.02,342.006 1166.38,342.561C1166.73,343.115 1166.91,343.701 1166.91,344.323C1166.91,344.978 1166.68,345.678 1166.22,346.418C1165.76,347.161 1164.85,348.108 1163.49,349.26L1166.45,352.374L1168.4,354.347C1169.44,353.579 1170.27,352.921 1170.86,352.374" style="fill:rgb(53,53,53);fill-rule:nonzero;stroke:rgb(53,53,53);stroke-width:0.44px;stroke-linecap:butt;"/>
        </g>
        <g transform="matrix(1,0,0,1,-1061.16,-208.458)">
            <path d="M1182.53,366.993L1186.21,341.235L1186.63,341.235L1197.1,362.37L1207.47,341.235L1207.89,341.235L1211.59,366.993L1209.07,366.993L1206.52,348.572L1197.42,366.993L1196.76,366.993L1187.54,348.433L1185.01,366.993L1182.53,366.993Z" style="fill:rgb(53,53,53);fill-rule:nonzero;stroke:rgb(53,53,53);stroke-width:0.44px;stroke-linecap:butt;"/>
        </g>
        <g transform="matrix(1,0,0,1,-1061.16,-201.751)">
            <path d="M1223.18,343.143C1221.14,343.143 1219.39,343.896 1217.93,345.401C1216.46,346.908 1215.73,348.73 1215.73,350.865C1215.73,352.243 1216.06,353.525 1216.73,354.716C1217.4,355.907 1218.3,356.826 1219.44,357.476C1220.58,358.123 1221.82,358.449 1223.18,358.449C1224.54,358.449 1225.79,358.123 1226.92,357.476C1228.06,356.826 1228.96,355.907 1229.63,354.716C1230.3,353.525 1230.63,352.243 1230.63,350.865C1230.63,348.73 1229.9,346.908 1228.43,345.401C1226.96,343.896 1225.21,343.143 1223.18,343.143M1223.19,340.744C1226.13,340.744 1228.56,341.806 1230.49,343.93C1232.24,345.868 1233.12,348.163 1233.12,350.814C1233.12,353.475 1232.19,355.801 1230.34,357.79C1228.48,359.783 1226.1,360.777 1223.19,360.777C1220.27,360.777 1217.88,359.783 1216.02,357.79C1214.17,355.801 1213.24,353.475 1213.24,350.814C1213.24,348.175 1214.12,345.886 1215.87,343.949C1217.8,341.812 1220.24,340.744 1223.19,340.744" style="fill:rgb(53,53,53);fill-rule:nonzero;stroke:rgb(53,53,53);stroke-width:0.44px;stroke-linecap:butt;"/>
        </g>
        <g transform="matrix(1,0,0,1,-1061.16,-208.616)">
            <path d="M1244.79,349.974C1243.43,349.974 1242.17,350.307 1241.01,350.977C1239.86,351.65 1238.94,352.591 1238.26,353.804C1237.58,355.018 1237.24,356.297 1237.24,357.652C1237.24,358.993 1237.58,360.277 1238.27,361.5C1238.96,362.725 1239.88,363.678 1241.04,364.358C1242.2,365.042 1243.45,365.383 1244.78,365.383C1246.12,365.383 1247.39,365.045 1248.59,364.366C1249.79,363.692 1250.71,362.775 1251.36,361.621C1252.01,360.466 1252.33,359.166 1252.33,357.72C1252.33,355.518 1251.6,353.675 1250.15,352.193C1248.7,350.714 1246.91,349.974 1244.79,349.974M1254.59,340.745L1254.59,367.152L1252.17,367.152L1252.17,363.876C1251.15,365.127 1249.99,366.065 1248.71,366.694C1247.44,367.326 1246.04,367.641 1244.52,367.641C1241.82,367.641 1239.52,366.664 1237.61,364.708C1235.71,362.752 1234.75,360.374 1234.75,357.573C1234.75,354.83 1235.71,352.482 1237.64,350.535C1239.57,348.584 1241.88,347.61 1244.59,347.61C1246.16,347.61 1247.57,347.943 1248.84,348.607C1250.1,349.274 1251.22,350.271 1252.17,351.602L1252.17,340.745L1254.59,340.745Z" style="fill:rgb(53,53,53);fill-rule:nonzero;stroke:rgb(53,53,53);stroke-width:0.44px;stroke-linecap:butt;"/>
        </g>
        <g transform="matrix(1,0,0,1,-1061.16,-210.192)">
            <path d="M1268.2,340.744L1271.96,340.744L1266.8,346.138L1264.38,346.138L1268.2,340.744ZM1274.1,357.273C1273.77,355.968 1273.3,354.924 1272.67,354.142C1272.05,353.357 1271.22,352.728 1270.19,352.25C1269.16,351.771 1268.08,351.531 1266.95,351.531C1265.08,351.531 1263.47,352.132 1262.13,353.334C1261.14,354.212 1260.4,355.523 1259.9,357.273L1274.1,357.273ZM1274.1,362.407L1276.17,363.49C1275.49,364.822 1274.71,365.895 1273.82,366.714C1272.93,367.531 1271.93,368.153 1270.82,368.579C1269.71,369.005 1268.46,369.218 1267.05,369.218C1263.94,369.218 1261.51,368.198 1259.76,366.161C1258.01,364.125 1257.13,361.821 1257.13,359.254C1257.13,356.837 1257.88,354.683 1259.36,352.791C1261.24,350.388 1263.76,349.186 1266.91,349.186C1270.16,349.186 1272.76,350.415 1274.69,352.881C1276.07,354.618 1276.77,356.79 1276.8,359.395L1259.66,359.395C1259.7,361.606 1260.41,363.422 1261.78,364.836C1263.14,366.25 1264.83,366.959 1266.84,366.959C1267.81,366.959 1268.76,366.788 1269.67,366.453C1270.59,366.116 1271.37,365.668 1272.02,365.11C1272.66,364.551 1273.35,363.651 1274.1,362.407" style="fill:rgb(53,53,53);fill-rule:nonzero;stroke:rgb(53,53,53);stroke-width:0.44px;stroke-linecap:butt;"/>
        </g>
        <g transform="matrix(1,0,0,1,-1061.16,-209.104)">
            <rect x="1278.92" y="341.234" width="2.451" height="26.406" style="fill:rgb(53,53,53);stroke:rgb(53,53,53);stroke-width:0.44px;stroke-linecap:butt;"/>
        </g>
        <g transform="matrix(1,0,0,1,-1061.16,-209.595)">
            <path d="M1284.02,349.079L1286.47,349.079L1286.47,368.131L1284.02,368.131L1284.02,349.079ZM1285.24,341.234C1285.79,341.234 1286.27,341.434 1286.67,341.828C1287.06,342.225 1287.26,342.705 1287.26,343.265C1287.26,343.815 1287.06,344.285 1286.67,344.683C1286.27,345.082 1285.79,345.279 1285.24,345.279C1284.69,345.279 1284.22,345.082 1283.82,344.683C1283.43,344.285 1283.23,343.815 1283.23,343.265C1283.23,342.705 1283.43,342.225 1283.82,341.828C1284.22,341.434 1284.69,341.234 1285.24,341.234" style="fill:rgb(53,53,53);fill-rule:nonzero;stroke:rgb(53,53,53);stroke-width:0.44px;stroke-linecap:butt;"/>
        </g>
        <g transform="matrix(1,0,0,1,-1061.16,-201.751)">
            <path d="M1299.07,343.319L1297.49,344.947C1296.18,343.675 1294.9,343.04 1293.64,343.04C1292.85,343.04 1292.17,343.299 1291.6,343.827C1291.03,344.351 1290.75,344.963 1290.75,345.665C1290.75,346.283 1290.98,346.872 1291.45,347.432C1291.92,348.004 1292.9,348.676 1294.4,349.446C1296.22,350.394 1297.46,351.304 1298.12,352.179C1298.76,353.066 1299.08,354.063 1299.08,355.174C1299.08,356.737 1298.53,358.061 1297.43,359.149C1296.33,360.233 1294.96,360.777 1293.31,360.777C1292.21,360.777 1291.16,360.536 1290.16,360.06C1289.17,359.58 1288.34,358.919 1287.68,358.079L1289.22,356.327C1290.48,357.74 1291.8,358.449 1293.21,358.449C1294.19,358.449 1295.03,358.132 1295.72,357.502C1296.41,356.871 1296.75,356.129 1296.75,355.277C1296.75,354.577 1296.53,353.952 1296.07,353.405C1295.61,352.867 1294.58,352.19 1292.98,351.374C1291.26,350.486 1290.09,349.609 1289.47,348.746C1288.85,347.884 1288.54,346.897 1288.54,345.788C1288.54,344.339 1289.04,343.137 1290.02,342.179C1291.01,341.223 1292.26,340.744 1293.77,340.744C1295.52,340.744 1297.29,341.602 1299.07,343.319" style="fill:rgb(53,53,53);fill-rule:nonzero;stroke:rgb(53,53,53);stroke-width:0.44px;stroke-linecap:butt;"/>
        </g>
        <g transform="matrix(1,0,0,1,-1061.16,-201.752)">
            <path d="M1317.37,348.834C1317.04,347.529 1316.56,346.483 1315.94,345.701C1315.31,344.918 1314.49,344.287 1313.46,343.811C1312.43,343.331 1311.35,343.09 1310.22,343.09C1308.35,343.09 1306.74,343.693 1305.39,344.895C1304.41,345.771 1303.67,347.083 1303.17,348.834L1317.37,348.834ZM1317.37,353.967L1319.43,355.051C1318.76,356.382 1317.97,357.455 1317.09,358.273C1316.2,359.091 1315.2,359.713 1314.09,360.139C1312.98,360.565 1311.72,360.777 1310.32,360.777C1307.21,360.777 1304.78,359.758 1303.03,357.721C1301.28,355.684 1300.4,353.381 1300.4,350.815C1300.4,348.397 1301.14,346.242 1302.63,344.351C1304.51,341.947 1307.03,340.745 1310.18,340.745C1313.43,340.745 1316.02,341.976 1317.96,344.44C1319.34,346.177 1320.04,348.349 1320.06,350.956L1302.92,350.956C1302.97,353.166 1303.68,354.981 1305.04,356.395C1306.41,357.811 1308.1,358.52 1310.11,358.52C1311.08,358.52 1312.02,358.349 1312.94,358.012C1313.86,357.676 1314.64,357.229 1315.28,356.671C1315.92,356.11 1316.62,355.21 1317.37,353.967" style="fill:rgb(53,53,53);fill-rule:nonzero;stroke:rgb(53,53,53);stroke-width:0.44px;stroke-linecap:butt;"/>
        </g>
        <g transform="matrix(1,0,0,1,-1061.16,-202.242)">
            <path d="M1321.63,341.726L1324.13,341.726L1324.13,344.51C1324.88,343.413 1325.66,342.592 1326.49,342.049C1327.32,341.508 1328.19,341.235 1329.08,341.235C1329.76,341.235 1330.49,341.452 1331.26,341.882L1329.98,343.951C1329.46,343.727 1329.03,343.616 1328.68,343.616C1327.87,343.616 1327.08,343.954 1326.32,344.623C1325.56,345.295 1324.98,346.338 1324.59,347.749C1324.28,348.834 1324.13,351.03 1324.13,354.333L1324.13,360.777L1321.63,360.777L1321.63,341.726Z" style="fill:rgb(53,53,53);fill-rule:nonzero;stroke:rgb(53,53,53);stroke-width:0.44px;stroke-linecap:butt;"/>
        </g>
        <g transform="matrix(1,0,0,1,-1061.16,-195.273)">
            <path d="M1348.95,336.631C1346.83,336.631 1345.05,337.371 1343.6,338.85C1342.14,340.332 1341.42,342.175 1341.42,344.377C1341.42,345.823 1341.74,347.123 1342.39,348.278C1343.04,349.432 1343.96,350.349 1345.17,351.023C1346.37,351.702 1347.65,352.04 1348.98,352.04C1350.3,352.04 1351.54,351.699 1352.7,351.015C1353.86,350.335 1354.78,349.382 1355.47,348.157C1356.15,346.934 1356.5,345.65 1356.5,344.309C1356.5,342.954 1356.16,341.675 1355.48,340.461C1354.79,339.248 1353.88,338.307 1352.72,337.634C1351.57,336.964 1350.31,336.631 1348.95,336.631M1339.14,334.756L1341.6,334.756L1341.6,338.259C1342.56,336.928 1343.68,335.931 1344.94,335.264C1346.2,334.6 1347.6,334.267 1349.15,334.267C1351.86,334.267 1354.17,335.241 1356.1,337.192C1358.02,339.139 1358.98,341.487 1358.98,344.23C1358.98,347.031 1358.03,349.409 1356.12,351.365C1354.22,353.321 1351.92,354.298 1349.22,354.298C1347.71,354.298 1346.31,353.983 1345.04,353.351C1343.77,352.722 1342.62,351.784 1341.6,350.533L1341.6,360.776L1339.14,360.776L1339.14,334.756Z" style="fill:rgb(53,53,53);fill-rule:nonzero;stroke:rgb(53,53,53);stroke-width:0.44px;stroke-linecap:butt;"/>
        </g>
        <g transform="matrix(1,0,0,1,-1061.16,-201.751)">
            <path d="M1370.5,343.143C1368.46,343.143 1366.71,343.896 1365.25,345.401C1363.78,346.908 1363.05,348.73 1363.05,350.865C1363.05,352.243 1363.38,353.525 1364.05,354.716C1364.72,355.907 1365.62,356.826 1366.76,357.476C1367.9,358.123 1369.14,358.449 1370.5,358.449C1371.86,358.449 1373.11,358.123 1374.24,357.476C1375.38,356.826 1376.28,355.907 1376.95,354.716C1377.62,353.525 1377.95,352.243 1377.95,350.865C1377.95,348.73 1377.22,346.908 1375.75,345.401C1374.28,343.896 1372.53,343.143 1370.5,343.143M1370.51,340.744C1373.45,340.744 1375.88,341.806 1377.81,343.93C1379.56,345.868 1380.44,348.163 1380.44,350.814C1380.44,353.475 1379.51,355.801 1377.66,357.79C1375.8,359.783 1373.42,360.777 1370.51,360.777C1367.59,360.777 1365.2,359.783 1363.34,357.79C1361.49,355.801 1360.56,353.475 1360.56,350.814C1360.56,348.175 1361.44,345.886 1363.2,343.949C1365.12,341.812 1367.56,340.744 1370.51,340.744" style="fill:rgb(53,53,53);fill-rule:nonzero;stroke:rgb(53,53,53);stroke-width:0.44px;stroke-linecap:butt;"/>
        </g>
        <g transform="matrix(1,0,0,1,-1061.16,-201.26)">
            <path d="M1382.58,340.744L1385.03,340.744L1385.03,349.639C1385.03,351.811 1385.15,353.304 1385.38,354.122C1385.73,355.288 1386.4,356.212 1387.39,356.887C1388.38,357.566 1389.55,357.904 1390.92,357.904C1392.29,357.904 1393.45,357.573 1394.4,356.915C1395.36,356.255 1396.01,355.388 1396.38,354.315C1396.62,353.578 1396.75,352.02 1396.75,349.639L1396.75,340.744L1399.25,340.744L1399.25,350.094C1399.25,352.722 1398.94,354.7 1398.33,356.03C1397.72,357.361 1396.79,358.404 1395.56,359.157C1394.33,359.907 1392.79,360.286 1390.93,360.286C1389.07,360.286 1387.52,359.907 1386.28,359.157C1385.04,358.404 1384.11,357.352 1383.5,356.005C1382.89,354.654 1382.58,352.626 1382.58,349.919L1382.58,340.744Z" style="fill:rgb(53,53,53);fill-rule:nonzero;stroke:rgb(53,53,53);stroke-width:0.44px;stroke-linecap:butt;"/>
        </g>
        <g transform="matrix(1,0,0,1,-1061.16,-202.242)">
            <path d="M1401.69,341.726L1404.19,341.726L1404.19,344.51C1404.94,343.413 1405.72,342.592 1406.55,342.049C1407.38,341.508 1408.25,341.235 1409.14,341.235C1409.82,341.235 1410.55,341.452 1411.32,341.882L1410.04,343.951C1409.52,343.727 1409.09,343.616 1408.74,343.616C1407.93,343.616 1407.14,343.954 1406.38,344.623C1405.62,345.295 1405.04,346.338 1404.65,347.749C1404.34,348.834 1404.19,351.03 1404.19,354.333L1404.19,360.777L1401.69,360.777L1401.69,341.726Z" style="fill:rgb(53,53,53);fill-rule:nonzero;stroke:rgb(53,53,53);stroke-width:0.44px;stroke-linecap:butt;"/>
        </g>
        <g transform="matrix(1,0,0,1,-1061.16,-208.457)">
            <path d="M1429.77,346.705L1425.36,356.029L1434.16,356.029L1429.77,346.705ZM1430.1,341.234L1442.11,366.993L1439.33,366.993L1435.28,358.517L1424.18,358.517L1420.17,366.993L1417.3,366.993L1429.47,341.234L1430.1,341.234Z" style="fill:rgb(53,53,53);fill-rule:nonzero;stroke:rgb(53,53,53);stroke-width:0.44px;stroke-linecap:butt;"/>
        </g>
        <g transform="matrix(1,0,0,1,-1061.16,-202.242)">
            <path d="M1443.6,341.726L1446.05,341.726L1446.05,345.018C1446.9,343.801 1447.78,342.916 1448.68,342.356C1449.92,341.608 1451.22,341.235 1452.59,341.235C1453.51,341.235 1454.39,341.415 1455.22,341.779C1456.05,342.14 1456.73,342.622 1457.25,343.222C1457.78,343.824 1458.24,344.685 1458.62,345.805C1459.44,344.312 1460.46,343.177 1461.68,342.399C1462.9,341.623 1464.22,341.235 1465.63,341.235C1466.94,341.235 1468.1,341.569 1469.11,342.234C1470.12,342.899 1470.87,343.827 1471.36,345.018C1471.84,346.209 1472.09,347.993 1472.09,350.374L1472.09,360.777L1469.59,360.777L1469.59,350.374C1469.59,348.332 1469.44,346.929 1469.15,346.164C1468.86,345.399 1468.36,344.783 1467.66,344.318C1466.95,343.849 1466.11,343.616 1465.14,343.616C1463.95,343.616 1462.86,343.966 1461.88,344.668C1460.9,345.368 1460.18,346.3 1459.72,347.469C1459.27,348.634 1459.04,350.585 1459.04,353.316L1459.04,360.777L1456.59,360.777L1456.59,351.024C1456.59,348.725 1456.45,347.161 1456.16,346.341C1455.88,345.517 1455.38,344.859 1454.67,344.359C1453.96,343.863 1453.11,343.616 1452.13,343.616C1451,343.616 1449.94,343.959 1448.95,344.639C1447.96,345.323 1447.23,346.242 1446.76,347.399C1446.29,348.554 1446.05,350.324 1446.05,352.705L1446.05,360.777L1443.6,360.777L1443.6,341.726Z" style="fill:rgb(53,53,53);fill-rule:nonzero;stroke:rgb(53,53,53);stroke-width:0.44px;stroke-linecap:butt;"/>
        </g>
        <g transform="matrix(1,0,0,1,-1061.16,-210.192)">
            <path d="M1485.32,340.744L1489.08,340.744L1483.91,346.138L1481.5,346.138L1485.32,340.744ZM1491.22,357.273C1490.89,355.968 1490.41,354.924 1489.79,354.142C1489.16,353.357 1488.33,352.728 1487.31,352.25C1486.28,351.771 1485.2,351.531 1484.06,351.531C1482.19,351.531 1480.58,352.132 1479.24,353.334C1478.26,354.212 1477.52,355.523 1477.01,357.273L1491.22,357.273ZM1491.22,362.407L1493.28,363.49C1492.6,364.822 1491.82,365.895 1490.93,366.714C1490.05,367.531 1489.05,368.153 1487.94,368.579C1486.83,369.005 1485.57,369.218 1484.17,369.218C1481.06,369.218 1478.63,368.198 1476.88,366.161C1475.13,364.125 1474.25,361.821 1474.25,359.254C1474.25,356.837 1474.99,354.683 1476.47,352.791C1478.35,350.388 1480.87,349.186 1484.03,349.186C1487.28,349.186 1489.87,350.415 1491.81,352.881C1493.19,354.618 1493.89,356.79 1493.91,359.395L1476.77,359.395C1476.82,361.606 1477.52,363.422 1478.89,364.836C1480.26,366.25 1481.95,366.959 1483.96,366.959C1484.93,366.959 1485.87,366.788 1486.79,366.453C1487.71,366.116 1488.49,365.668 1489.13,365.11C1489.77,364.551 1490.47,363.651 1491.22,362.407" style="fill:rgb(53,53,53);fill-rule:nonzero;stroke:rgb(53,53,53);stroke-width:0.44px;stroke-linecap:butt;"/>
        </g>
        <g transform="matrix(1,0,0,1,-1061.16,-202.242)">
            <path d="M1496.4,341.726L1498.85,341.726L1498.85,345.141C1499.83,343.833 1500.92,342.855 1502.11,342.208C1503.3,341.558 1504.6,341.235 1506,341.235C1507.42,341.235 1508.69,341.597 1509.79,342.32C1510.89,343.046 1511.71,344.021 1512.23,345.245C1512.76,346.472 1513.02,348.38 1513.02,350.971L1513.02,360.777L1510.57,360.777L1510.57,351.688C1510.57,349.495 1510.48,348.03 1510.3,347.293C1510.01,346.032 1509.47,345.085 1508.66,344.448C1507.85,343.813 1506.8,343.493 1505.51,343.493C1504.02,343.493 1502.7,343.984 1501.52,344.965C1500.35,345.945 1499.58,347.158 1499.2,348.607C1498.97,349.554 1498.85,351.279 1498.85,353.79L1498.85,360.777L1496.4,360.777L1496.4,341.726Z" style="fill:rgb(53,53,53);fill-rule:nonzero;stroke:rgb(53,53,53);stroke-width:0.44px;stroke-linecap:butt;"/>
        </g>
        <g transform="matrix(1,0,0,1,-1061.16,-201.751)">
            <path d="M1525.38,343.109C1524.01,343.109 1522.75,343.442 1521.6,344.112C1520.45,344.785 1519.53,345.726 1518.84,346.939C1518.16,348.153 1517.82,349.432 1517.82,350.787C1517.82,352.128 1518.17,353.412 1518.85,354.635C1519.54,355.86 1520.47,356.813 1521.63,357.493C1522.79,358.177 1524.03,358.518 1525.36,358.518C1526.7,358.518 1527.97,358.18 1529.17,357.501C1530.37,356.827 1531.3,355.91 1531.95,354.756C1532.59,353.601 1532.92,352.301 1532.92,350.855C1532.92,348.653 1532.19,346.81 1530.74,345.328C1529.29,343.849 1527.5,343.109 1525.38,343.109M1535.17,341.234L1535.17,360.287L1532.76,360.287L1532.76,357.011C1531.73,358.262 1530.58,359.2 1529.3,359.829C1528.02,360.461 1526.62,360.776 1525.11,360.776C1522.41,360.776 1520.11,359.799 1518.2,357.843C1516.29,355.887 1515.34,353.509 1515.34,350.708C1515.34,347.965 1516.3,345.617 1518.23,343.67C1520.15,341.719 1522.47,340.745 1525.18,340.745C1526.74,340.745 1528.16,341.078 1529.42,341.742C1530.69,342.409 1531.8,343.406 1532.76,344.737L1532.76,341.234L1535.17,341.234Z" style="fill:rgb(53,53,53);fill-rule:nonzero;stroke:rgb(53,53,53);stroke-width:0.44px;stroke-linecap:butt;"/>
        </g>
        <g transform="matrix(1,0,0,1,-1061.16,-194.782)">
            <path d="M1547.8,336.14C1546.41,336.14 1545.13,336.473 1543.93,337.146C1542.74,337.819 1541.81,338.745 1541.13,339.932C1540.46,341.116 1540.12,342.396 1540.12,343.774C1540.12,345.862 1540.82,347.59 1542.22,348.959C1543.62,350.323 1545.44,351.006 1547.66,351.006C1549.92,351.006 1551.73,350.329 1553.1,348.974C1554.47,347.619 1555.16,345.84 1555.16,343.635C1555.16,342.198 1554.84,340.917 1554.21,339.791C1553.58,338.665 1552.69,337.774 1551.53,337.121C1550.38,336.466 1549.13,336.14 1547.8,336.14M1555.04,334.265L1557.49,334.265L1557.49,349.448C1557.49,352.122 1557.25,354.077 1556.79,355.312C1556.14,357.063 1555.03,358.413 1553.44,359.359C1551.85,360.305 1549.95,360.776 1547.72,360.776C1546.08,360.776 1544.61,360.546 1543.31,360.083C1542.01,359.621 1540.95,359 1540.13,358.221C1539.32,357.442 1538.57,356.305 1537.88,354.806L1540.54,354.806C1541.26,356.066 1542.2,356.999 1543.34,357.607C1544.49,358.215 1545.91,358.518 1547.6,358.518C1549.27,358.518 1550.69,358.207 1551.84,357.584C1552.99,356.963 1553.81,356.178 1554.3,355.237C1554.79,354.295 1555.04,352.774 1555.04,350.673L1555.04,349.692C1554.11,350.861 1552.98,351.757 1551.65,352.378C1550.32,353.004 1548.91,353.318 1547.41,353.318C1545.66,353.318 1544.01,352.883 1542.47,352.011C1540.93,351.143 1539.73,349.973 1538.89,348.501C1538.05,347.031 1537.63,345.414 1537.63,343.651C1537.63,341.89 1538.07,340.244 1538.94,338.721C1539.82,337.199 1541.03,335.991 1542.58,335.106C1544.13,334.218 1545.76,333.776 1547.48,333.776C1548.91,333.776 1550.24,334.07 1551.47,334.658C1552.7,335.249 1553.89,336.222 1555.04,337.575L1555.04,334.265Z" style="fill:rgb(53,53,53);fill-rule:nonzero;stroke:rgb(53,53,53);stroke-width:0.44px;stroke-linecap:butt;"/>
        </g>
        <g transform="matrix(1,0,0,1,-1061.16,-201.752)">
            <path d="M1576.7,348.834C1576.37,347.529 1575.9,346.483 1575.27,345.701C1574.64,344.918 1573.82,344.287 1572.79,343.811C1571.76,343.331 1570.68,343.09 1569.55,343.09C1567.68,343.09 1566.07,343.693 1564.73,344.895C1563.74,345.771 1563,347.083 1562.5,348.834L1576.7,348.834ZM1576.7,353.967L1578.77,355.051C1578.09,356.382 1577.31,357.455 1576.42,358.273C1575.53,359.091 1574.53,359.713 1573.42,360.139C1572.31,360.565 1571.05,360.777 1569.65,360.777C1566.54,360.777 1564.11,359.758 1562.36,357.721C1560.61,355.684 1559.73,353.381 1559.73,350.815C1559.73,348.397 1560.47,346.242 1561.96,344.351C1563.84,341.947 1566.36,340.745 1569.51,340.745C1572.76,340.745 1575.35,341.976 1577.29,344.44C1578.67,346.177 1579.37,348.349 1579.4,350.956L1562.26,350.956C1562.3,353.166 1563.01,354.981 1564.38,356.395C1565.74,357.811 1567.43,358.52 1569.44,358.52C1570.41,358.52 1571.36,358.349 1572.27,358.012C1573.19,357.676 1573.97,357.229 1574.61,356.671C1575.26,356.11 1575.95,355.21 1576.7,353.967" style="fill:rgb(53,53,53);fill-rule:nonzero;stroke:rgb(53,53,53);stroke-width:0.44px;stroke-linecap:butt;"/>
        </g>
        <g transform="matrix(1,0,0,1,-1061.16,-202.242)">
            <path d="M1580.96,341.726L1583.46,341.726L1583.46,344.51C1584.21,343.413 1585,342.592 1585.83,342.049C1586.66,341.508 1587.52,341.235 1588.42,341.235C1589.1,341.235 1589.82,341.452 1590.59,341.882L1589.31,343.951C1588.8,343.727 1588.37,343.616 1588.02,343.616C1587.2,343.616 1586.41,343.954 1585.65,344.623C1584.89,345.295 1584.32,346.338 1583.92,347.749C1583.62,348.834 1583.46,351.03 1583.46,354.333L1583.46,360.777L1580.96,360.777L1580.96,341.726Z" style="fill:rgb(53,53,53);fill-rule:nonzero;stroke:rgb(53,53,53);stroke-width:0.44px;stroke-linecap:butt;"/>
        </g>
        <g transform="matrix(1,0,0,1,-1061.16,-207.816)">
            <path d="M864.552,340.59L867.126,340.59L867.126,356.139C867.126,357.986 867.162,359.135 867.232,359.591C867.359,360.605 867.658,361.454 868.124,362.137C868.59,362.821 869.309,363.392 870.279,363.855C871.247,364.314 872.222,364.544 873.202,364.544C874.054,364.544 874.872,364.365 875.654,364.003C876.435,363.642 877.089,363.138 877.615,362.496C878.141,361.854 878.525,361.078 878.771,360.167C878.946,359.515 879.033,358.171 879.033,356.139L879.033,340.59L881.608,340.59L881.608,356.139C881.608,358.439 881.383,360.299 880.934,361.718C880.483,363.135 879.584,364.37 878.237,365.422C876.889,366.472 875.256,366.996 873.343,366.996C871.264,366.996 869.484,366.499 868.002,365.508C866.519,364.517 865.526,363.203 865.026,361.569C864.71,360.566 864.552,358.756 864.552,356.139L864.552,340.59Z" style="fill:rgb(53,53,53);fill-rule:nonzero;stroke:rgb(53,53,53);stroke-width:0.44px;stroke-linecap:butt;"/>
        </g>
        <g transform="matrix(1,0,0,1,-1061.16,-208.463)">
            <path d="M882.972,366.996L886.66,341.237L887.077,341.237L897.549,362.372L907.92,341.237L908.333,341.237L912.04,366.996L909.515,366.996L906.969,348.574L897.863,366.996L897.205,366.996L887.988,348.435L885.458,366.996L882.972,366.996Z" style="fill:rgb(53,53,53);fill-rule:nonzero;stroke:rgb(53,53,53);stroke-width:0.44px;stroke-linecap:butt;"/>
        </g>
        <g transform="matrix(1,0,0,1,-1061.16,-208.465)">
            <path d="M916.013,343.76L916.013,352.516L920.45,352.552C922.17,352.552 923.441,352.39 924.264,352.062C925.089,351.735 925.733,351.212 926.195,350.495C926.655,349.775 926.888,348.975 926.888,348.087C926.888,347.223 926.653,346.438 926.185,345.733C925.717,345.027 925.103,344.519 924.345,344.216C923.584,343.914 922.321,343.76 920.556,343.76L916.013,343.76ZM913.44,341.238L918.569,341.238C921.43,341.238 923.368,341.356 924.383,341.591C925.912,341.941 927.156,342.693 928.113,343.845C929.07,344.995 929.549,346.414 929.549,348.094C929.549,349.498 929.219,350.73 928.559,351.796C927.901,352.858 926.957,353.661 925.732,354.205C924.505,354.748 922.813,355.027 920.654,355.037L929.916,366.997L926.733,366.997L917.469,355.037L916.013,355.037L916.013,366.997L913.44,366.997L913.44,341.238Z" style="fill:rgb(53,53,53);fill-rule:nonzero;stroke:rgb(53,53,53);stroke-width:0.44px;stroke-linecap:butt;"/>
        </g>
        <g transform="matrix(1,0,0,1,-1061.16,-208.464)">
            <path d="M944.595,354.302C943.099,354.302 941.82,354.831 940.763,355.887C939.705,356.944 939.177,358.224 939.177,359.729C939.177,361.225 939.705,362.5 940.763,363.556C941.822,364.612 943.1,365.142 944.595,365.142C946.092,365.142 947.37,364.612 948.428,363.556C949.486,362.5 950.016,361.225 950.016,359.729C950.016,358.224 949.486,356.944 948.428,355.887C947.369,354.831 946.091,354.302 944.595,354.302M947.423,340.59L949.542,341.974L942.576,352.515C943.512,352.201 944.387,352.044 945.206,352.044C947.251,352.044 948.988,352.78 950.414,354.258C951.842,355.737 952.555,357.553 952.555,359.711C952.555,361.195 952.21,362.536 951.52,363.732C950.83,364.929 949.852,365.878 948.584,366.585C947.316,367.291 945.952,367.644 944.49,367.644C943.076,367.644 941.764,367.304 940.555,366.621C939.345,365.937 938.396,364.976 937.706,363.741C937.016,362.503 936.672,361.178 936.672,359.766C936.672,358.715 936.884,357.609 937.312,356.448C937.739,355.286 938.501,353.888 939.601,352.254L947.423,340.59Z" style="fill:rgb(53,53,53);fill-rule:nonzero;stroke:rgb(53,53,53);stroke-width:0.44px;stroke-linecap:butt;"/>
        </g>
        <g transform="matrix(1,0,0,1,-1061.16,-208.464)">
            <path d="M953.901,354.17C953.901,357.081 954.161,359.279 954.68,360.769C955.199,362.259 955.967,363.388 956.982,364.159C957.998,364.932 959.073,365.316 960.206,365.316C961.349,365.316 962.418,364.94 963.409,364.186C964.402,363.433 965.155,362.301 965.668,360.793C966.309,358.962 966.632,356.754 966.632,354.17C966.632,351.575 966.345,349.455 965.773,347.8C965.201,346.146 964.41,344.938 963.4,344.174C962.39,343.409 961.326,343.025 960.206,343.025C959.061,343.025 957.987,343.409 956.982,344.174C955.978,344.938 955.215,346.066 954.689,347.556C954.164,349.046 953.901,351.251 953.901,354.17M951.467,354.126C951.467,350.731 951.833,348.103 952.561,346.248C953.292,344.39 954.322,342.983 955.653,342.028C956.982,341.069 958.471,340.59 960.117,340.59C961.787,340.59 963.298,341.072 964.653,342.036C966.007,343 967.078,344.443 967.866,346.371C968.653,348.295 969.048,350.881 969.048,354.126C969.048,357.362 968.661,359.934 967.883,361.851C967.107,363.763 966.035,365.209 964.67,366.184C963.304,367.157 961.787,367.644 960.117,367.644C958.471,367.644 956.988,367.172 955.67,366.226C954.35,365.282 953.32,363.873 952.579,361.998C951.838,360.123 951.467,357.501 951.467,354.126" style="fill:rgb(53,53,53);fill-rule:nonzero;stroke:rgb(53,53,53);stroke-width:0.44px;stroke-linecap:butt;"/>
        </g>
        <g transform="matrix(1,0,0,1,-1061.16,-209.11)">
            <path d="M979.64,359.204L979.64,348.384L972.009,359.204L979.64,359.204ZM981.674,341.237L982.197,341.237L982.197,359.204L985.314,359.204L985.314,361.655L982.197,361.655L982.197,367.643L979.64,367.643L979.64,361.655L967.313,361.655L981.674,341.237Z" style="fill:rgb(53,53,53);fill-rule:nonzero;stroke:rgb(53,53,53);stroke-width:0.44px;stroke-linecap:butt;"/>
        </g>
        <g transform="matrix(1,0,0,1,-1061.16,-208.464)">
            <path d="M992.171,353.935C993.68,353.935 994.96,353.406 996.011,352.35C997.063,351.293 997.588,350.019 997.588,348.523C997.588,347.029 997.06,345.754 996.003,344.698C994.947,343.641 993.666,343.112 992.16,343.112C990.665,343.112 989.39,343.641 988.332,344.698C987.277,345.754 986.749,347.029 986.749,348.523C986.749,350.019 987.278,351.293 988.337,352.35C989.395,353.406 990.673,353.935 992.171,353.935M989.358,367.644L987.239,366.279L994.207,355.731C993.274,356.039 992.396,356.193 991.579,356.193C989.532,356.193 987.794,355.457 986.367,353.977C984.94,352.501 984.227,350.682 984.227,348.523C984.227,347.04 984.571,345.704 985.26,344.513C985.948,343.323 986.927,342.372 988.193,341.657C989.46,340.946 990.817,340.59 992.264,340.59C993.689,340.59 995.006,340.934 996.212,341.624C997.421,342.313 998.369,343.277 999.058,344.513C999.746,345.751 1000.09,347.071 1000.09,348.471C1000.09,349.534 999.878,350.646 999.452,351.806C999.026,352.968 998.265,354.367 997.167,355.999L989.358,367.644Z" style="fill:rgb(53,53,53);fill-rule:nonzero;stroke:rgb(53,53,53);stroke-width:0.44px;stroke-linecap:butt;"/>
        </g>
        <g transform="matrix(1,0,0,1,-1061.16,-357.074)">
            <path d="M1201.4,436.269L1201.4,424.311L1166.64,419.135L1119.96,410.534C1119.95,410.887 1119.94,411.24 1119.94,411.596C1119.94,430.769 1135.48,446.31 1154.65,446.31C1165.55,446.31 1175.25,441.268 1181.61,433.408L1201.4,436.269Z" style="fill:rgb(53,53,53);fill-rule:nonzero;"/>
        </g>
    </g>
</svg>
